<svg width="50" height="50" viewBox="0 0 50 50" fill="none" xmlns="http://www.w3.org/2000/svg">
<path d="M25 0C38.8078 0 50 11.1922 50 25C50 38.8078 38.8078 50 25 50C11.1922 50 0 38.8078 0 25C0 11.1922 11.1922 0 25 0ZM30.2375 8.6875C29.8562 8.5 29.475 8.6875 29.3813 9.06719C29.2859 9.1625 29.2859 9.25781 29.2859 9.44687V10.775L29.3016 10.9375C29.3831 11.259 29.5807 11.5389 29.8562 11.7234C37.2844 14.3797 41.0938 22.6297 38.3312 29.9312C36.9031 33.9156 33.7609 36.9484 29.8562 38.3719C29.475 38.5609 29.2859 38.8453 29.2859 39.3203V40.6484L29.2937 40.7859C29.3086 40.936 29.3713 41.0773 29.4726 41.189C29.5739 41.3007 29.7084 41.3768 29.8562 41.4062C29.9516 41.4062 30.1422 41.4062 30.2375 41.3125C32.3806 40.6432 34.3701 39.5567 36.0915 38.1154C37.813 36.674 39.2323 34.9064 40.2677 32.9143C41.3032 30.9222 41.9344 28.745 42.125 26.5079C42.3156 24.2709 42.0617 22.0182 41.3781 19.8797C39.6656 14.4734 35.475 10.3953 30.2375 8.68906V8.6875ZM20.1438 8.59375C20.0484 8.59375 19.8578 8.59375 19.7625 8.6875C17.6194 9.35676 15.6299 10.4433 13.9085 11.8846C12.1871 13.326 10.7677 15.0936 9.73226 17.0857C8.69678 19.0778 8.06558 21.255 7.87501 23.4921C7.68445 25.7291 7.93827 27.9818 8.62187 30.1203C10.3344 35.4328 14.4297 39.5109 19.7625 41.2172C20.1437 41.4062 20.525 41.2172 20.6187 40.8375C20.7141 40.7437 20.7141 40.6469 20.7141 40.4578V39.1297L20.6984 39.0047C20.6328 38.7406 20.3875 38.4391 20.1438 38.2766C12.7156 35.6203 8.90625 27.3703 11.6687 20.0688C13.0969 16.0844 16.2391 13.0516 20.1438 11.6281C20.525 11.4391 20.7141 11.1547 20.7141 10.6797V9.35156L20.7062 9.21406C20.6914 9.06402 20.6287 8.92273 20.5274 8.81104C20.4261 8.69935 20.2916 8.62317 20.1438 8.59375ZM25.6672 13.525H24.2375L24.1 13.5375C23.7875 13.6 23.5594 13.8688 23.475 14.2844V16.4656L23.1516 16.5156C20.4828 16.9906 18.8109 18.8328 18.8109 21.1125C18.8109 24.2406 20.7141 25.4734 24.7141 25.9484C27.3813 26.4219 28.2375 26.9922 28.2375 28.5094C28.2375 30.025 26.9047 31.0688 25.0953 31.0688C22.6188 31.0688 21.7625 30.0266 21.4766 28.6031C21.3828 28.225 21.0953 28.0344 20.8094 28.0344H19.1906L19.0672 28.0453C18.9131 28.0702 18.7733 28.1501 18.6736 28.2702C18.5739 28.3903 18.5211 28.5424 18.525 28.6984V28.7922L18.5766 29.0734C19.0297 31.2984 20.5547 32.8906 23.5719 33.3453V35.6219L23.5844 35.7594C23.6469 36.0687 23.9172 36.2969 24.3344 36.3797H25.7625L25.9 36.3672C26.2125 36.3047 26.4406 36.0359 26.525 35.6219V33.3438L26.8484 33.2812C29.525 32.7156 31.2859 30.7797 31.2859 28.3172C31.2859 24.9984 29.2859 23.8609 25.2859 23.3859C22.4281 23.0063 21.8578 22.2484 21.8578 20.9203C21.8578 19.5922 22.8109 18.7391 24.7141 18.7391C26.4281 18.7391 27.3812 19.3078 27.8562 20.7312C27.9057 20.8689 27.9962 20.9881 28.1155 21.0727C28.2348 21.1574 28.3772 21.2034 28.5234 21.2047H30.0469L30.1703 21.1953C30.3249 21.1707 30.4654 21.0908 30.5654 20.9703C30.6654 20.8499 30.7183 20.6971 30.7141 20.5406V20.4469L30.6563 20.1766C30.4216 19.2053 29.8868 18.3328 29.1277 17.6831C28.3686 17.0334 27.4239 16.6397 26.4281 16.5578V14.2844L26.4156 14.1469C26.3531 13.8359 26.0828 13.6078 25.6656 13.525H25.6672Z" fill="#125E38"/>
</svg>
